<?xml version="1.0" standalone="no"?><svg xmlns="http://www.w3.org/2000/svg" viewBox="0 0 1440 320"><path fill="#0099ff" fill-opacity="1" d="M0,224L26.7,213.3C53.3,203,107,181,160,197.3C213.3,213,267,267,320,256C373.3,245,427,171,480,160C533.3,149,587,203,640,208C693.3,213,747,171,800,165.3C853.3,160,907,192,960,181.3C1013.3,171,1067,117,1120,80C1173.3,43,1227,21,1280,26.7C1333.3,32,1387,64,1413,80L1440,96L1440,320L1413.3,320C1386.7,320,1333,320,1280,320C1226.7,320,1173,320,1120,320C1066.7,320,1013,320,960,320C906.7,320,853,320,800,320C746.7,320,693,320,640,320C586.7,320,533,320,480,320C426.7,320,373,320,320,320C266.7,320,213,320,160,320C106.7,320,53,320,27,320L0,320Z"></path></svg>