<?xml version="1.0" standalone="no"?><svg xmlns="http://www.w3.org/2000/svg" viewBox="0 0 1440 320"><path fill="#0099ff" fill-opacity="100" d="M0,192L21.8,186.7C43.6,181,87,171,131,165.3C174.5,160,218,160,262,165.3C305.5,171,349,181,393,192C436.4,203,480,213,524,208C567.3,203,611,181,655,149.3C698.2,117,742,75,785,53.3C829.1,32,873,32,916,58.7C960,85,1004,139,1047,170.7C1090.9,203,1135,213,1178,208C1221.8,203,1265,181,1309,186.7C1352.7,192,1396,224,1418,240L1440,256L1440,320L1418.2,320C1396.4,320,1353,320,1309,320C1265.5,320,1222,320,1178,320C1134.5,320,1091,320,1047,320C1003.6,320,960,320,916,320C872.7,320,829,320,785,320C741.8,320,698,320,655,320C610.9,320,567,320,524,320C480,320,436,320,393,320C349.1,320,305,320,262,320C218.2,320,175,320,131,320C87.3,320,44,320,22,320L0,320Z"></path></svg>