<?xml version="1.0" standalone="no"?><svg xmlns="http://www.w3.org/2000/svg" viewBox="0 0 1440 320"><path fill="#0099ff" fill-opacity="100" d="M0,192L21.8,186.7C43.6,181,87,171,131,165.3C174.5,160,218,160,262,165.3C305.5,171,349,181,393,192C436.4,203,480,213,524,208C567.3,203,611,181,655,149.3C698.2,117,742,75,785,53.3C829.1,32,873,32,916,58.7C960,85,1004,139,1047,170.7C1090.9,203,1135,213,1178,208C1221.8,203,1265,181,1309,186.7C1352.7,192,1396,224,1418,240L1440,256L1440,0L1418.2,0C1396.4,0,1353,0,1309,0C1265.5,0,1222,0,1178,0C1134.5,0,1091,0,1047,0C1003.6,0,960,0,916,0C872.7,0,829,0,785,0C741.8,0,698,0,655,0C610.9,0,567,0,524,0C480,0,436,0,393,0C349.1,0,305,0,262,0C218.2,0,175,0,131,0C87.3,0,44,0,22,0L0,0Z"></path></svg>