<?xml version="1.0" standalone="no"?><svg xmlns="http://www.w3.org/2000/svg" viewBox="0 0 1440 320"><path fill="#0099ff" fill-opacity="0.8" d="M0,224L17.1,234.7C34.3,245,69,267,103,261.3C137.1,256,171,224,206,197.3C240,171,274,149,309,122.7C342.9,96,377,64,411,74.7C445.7,85,480,139,514,165.3C548.6,192,583,192,617,181.3C651.4,171,686,149,720,165.3C754.3,181,789,235,823,250.7C857.1,267,891,245,926,234.7C960,224,994,224,1029,202.7C1062.9,181,1097,139,1131,149.3C1165.7,160,1200,224,1234,250.7C1268.6,277,1303,267,1337,272C1371.4,277,1406,299,1423,309.3L1440,320L1440,320L1422.9,320C1405.7,320,1371,320,1337,320C1302.9,320,1269,320,1234,320C1200,320,1166,320,1131,320C1097.1,320,1063,320,1029,320C994.3,320,960,320,926,320C891.4,320,857,320,823,320C788.6,320,754,320,720,320C685.7,320,651,320,617,320C582.9,320,549,320,514,320C480,320,446,320,411,320C377.1,320,343,320,309,320C274.3,320,240,320,206,320C171.4,320,137,320,103,320C68.6,320,34,320,17,320L0,320Z"></path></svg>