<?xml version="1.0" standalone="no"?><svg xmlns="http://www.w3.org/2000/svg" viewBox="0 0 1440 320"><path fill="#0099ff" fill-opacity="1" d="M0,224L26.7,213.3C53.3,203,107,181,160,197.3C213.3,213,267,267,320,256C373.3,245,427,171,480,160C533.3,149,587,203,640,208C693.3,213,747,171,800,165.3C853.3,160,907,192,960,181.3C1013.3,171,1067,117,1120,80C1173.3,43,1227,21,1280,26.7C1333.3,32,1387,64,1413,80L1440,96L1440,0L1413.3,0C1386.7,0,1333,0,1280,0C1226.7,0,1173,0,1120,0C1066.7,0,1013,0,960,0C906.7,0,853,0,800,0C746.7,0,693,0,640,0C586.7,0,533,0,480,0C426.7,0,373,0,320,0C266.7,0,213,0,160,0C106.7,0,53,0,27,0L0,0Z"></path></svg>